<svg width="470" height="170" viewBox="0 0 470 170" fill="none" xmlns="http://www.w3.org/2000/svg">
<path d="M66.0502 157.492C69.4502 158.992 72.6502 159.292 72.6502 154.292V49.5917C72.6502 47.3917 71.8502 46.9917 70.1502 46.2917C69.4502 45.8917 24.3502 26.2917 23.2502 25.7917C22.1502 25.2917 22.7502 24.3917 24.0502 23.8917C26.2502 23.0917 34.9502 20.0917 35.9502 19.7917C37.3502 19.2917 39.1502 19.2917 41.0502 20.0917C45.2502 21.8917 78.7502 36.4917 81.6502 37.7917C84.6502 39.0917 85.1502 39.8917 85.1502 42.2917V134.492C85.1502 134.492 84.8502 136.192 86.6502 136.192H92.0502C93.5502 136.192 93.3502 134.692 93.3502 134.692V39.1917C93.3502 35.2917 93.2502 34.3917 90.1502 33.0917C90.1502 33.0917 47.2502 14.2917 43.1502 12.4917C40.5502 11.3917 37.4502 11.1917 34.6502 12.1917C31.5502 13.2917 14.0502 19.4917 14.0502 19.4917C11.2502 20.4917 10.4502 22.2917 10.4502 24.7917V128.192C10.4502 129.492 10.4502 130.092 11.4502 130.892L66.0502 157.492Z" fill="#00BDD7"/>
<path d="M118.943 107V60.7891H135.542C141.488 60.7891 146.005 61.8787 149.095 64.0581C152.205 66.2375 153.76 69.4007 153.76 73.5479C153.76 75.9388 153.21 77.9806 152.11 79.6733C151.009 81.366 149.391 82.6144 147.254 83.4185C149.666 84.0532 151.517 85.2381 152.808 86.9731C154.099 88.7082 154.744 90.8241 154.744 93.3208C154.744 97.8488 153.305 101.255 150.428 103.541C147.571 105.805 143.329 106.958 137.7 107H118.943ZM130.083 87.354V98.4307H137.383C139.393 98.4307 140.938 97.9757 142.017 97.0659C143.096 96.1349 143.636 94.8337 143.636 93.1621C143.636 89.3112 141.721 87.3752 137.891 87.354H130.083ZM130.083 80.0542H135.891C138.325 80.033 140.06 79.5887 141.096 78.7212C142.133 77.8537 142.652 76.5736 142.652 74.8809C142.652 72.9342 142.091 71.5378 140.97 70.6914C139.848 69.8239 138.039 69.3901 135.542 69.3901H130.083V80.0542ZM161.01 89.5122C161.01 86.0845 161.677 83.0376 163.01 80.3716C164.343 77.6844 166.258 75.6214 168.754 74.1826C171.251 72.7438 174.182 72.0244 177.546 72.0244C182.688 72.0244 186.74 73.6219 189.702 76.8169C192.664 79.9907 194.145 84.3177 194.145 89.7979V90.1787C194.145 95.5319 192.653 99.7848 189.67 102.938C186.708 106.069 182.688 107.635 177.609 107.635C172.722 107.635 168.797 106.175 165.835 103.255C162.872 100.314 161.275 96.3359 161.042 91.3213L161.01 89.5122ZM171.706 90.1787C171.706 93.3525 172.203 95.68 173.198 97.1611C174.192 98.6423 175.663 99.3828 177.609 99.3828C181.418 99.3828 183.365 96.4523 183.449 90.5913V89.5122C183.449 83.355 181.482 80.2764 177.546 80.2764C173.97 80.2764 172.034 82.9318 171.738 88.2427L171.706 90.1787ZM199.459 89.5122C199.459 86.0845 200.126 83.0376 201.459 80.3716C202.792 77.6844 204.707 75.6214 207.204 74.1826C209.7 72.7438 212.631 72.0244 215.995 72.0244C221.137 72.0244 225.189 73.6219 228.151 76.8169C231.113 79.9907 232.594 84.3177 232.594 89.7979V90.1787C232.594 95.5319 231.102 99.7848 228.119 102.938C225.157 106.069 221.137 107.635 216.058 107.635C211.171 107.635 207.246 106.175 204.284 103.255C201.321 100.314 199.724 96.3359 199.491 91.3213L199.459 89.5122ZM210.155 90.1787C210.155 93.3525 210.652 95.68 211.647 97.1611C212.641 98.6423 214.112 99.3828 216.058 99.3828C219.867 99.3828 221.814 96.4523 221.898 90.5913V89.5122C221.898 83.355 219.931 80.2764 215.995 80.2764C212.419 80.2764 210.483 82.9318 210.187 88.2427L210.155 90.1787ZM253.048 94.2095L250.032 97.2246V107H239.337V58.2183H250.032V84.1167L251.112 82.6885L259.173 72.6592H271.995L259.966 86.7827L272.789 107H260.538L253.048 94.2095ZM301.082 94.7173C301.082 93.0881 300.5 91.8185 299.336 90.9087C298.193 89.9989 296.173 89.0573 293.274 88.084C290.375 87.1107 288.005 86.1691 286.165 85.2593C280.177 82.3182 277.183 78.2769 277.183 73.1353C277.183 70.575 277.923 68.3216 279.404 66.375C280.907 64.4072 283.022 62.8838 285.752 61.8047C288.481 60.7044 291.549 60.1543 294.956 60.1543C298.278 60.1543 301.251 60.7467 303.875 61.9316C306.519 63.1165 308.572 64.8092 310.032 67.0098C311.492 69.1891 312.222 71.6859 312.222 74.5H301.113C301.113 72.6169 300.531 71.1569 299.368 70.1201C298.225 69.0833 296.67 68.5649 294.702 68.5649C292.713 68.5649 291.137 69.0093 289.973 69.8979C288.831 70.7655 288.259 71.8763 288.259 73.2305C288.259 74.4154 288.894 75.4945 290.164 76.4678C291.433 77.4199 293.665 78.4144 296.86 79.4512C300.055 80.4668 302.679 81.5671 304.731 82.752C309.725 85.6296 312.222 89.5968 312.222 94.6538C312.222 98.6951 310.698 101.869 307.651 104.175C304.604 106.482 300.426 107.635 295.115 107.635C291.37 107.635 287.974 106.968 284.927 105.635C281.901 104.281 279.616 102.44 278.071 100.113C276.548 97.7642 275.786 95.0664 275.786 92.0195H286.958C286.958 94.4951 287.593 96.3254 288.862 97.5103C290.153 98.674 292.237 99.2559 295.115 99.2559C296.956 99.2559 298.405 98.8644 299.463 98.0815C300.542 97.2775 301.082 96.1561 301.082 94.7173ZM331.85 64.1216V72.6592H337.499V80.0859H331.85V95.7964C331.85 97.0871 332.083 97.9863 332.548 98.4941C333.014 99.002 333.934 99.2559 335.309 99.2559C336.367 99.2559 337.256 99.1924 337.975 99.0654V106.714C336.05 107.328 334.04 107.635 331.945 107.635C328.263 107.635 325.545 106.767 323.788 105.032C322.032 103.297 321.154 100.663 321.154 97.1294V80.0859H316.774V72.6592H321.154V64.1216H331.85ZM341.385 89.5122C341.385 86.0845 342.052 83.0376 343.385 80.3716C344.718 77.6844 346.633 75.6214 349.129 74.1826C351.626 72.7438 354.557 72.0244 357.921 72.0244C363.063 72.0244 367.115 73.6219 370.077 76.8169C373.039 79.9907 374.52 84.3177 374.52 89.7979V90.1787C374.52 95.5319 373.028 99.7848 370.045 102.938C367.083 106.069 363.063 107.635 357.984 107.635C353.097 107.635 349.172 106.175 346.21 103.255C343.247 100.314 341.65 96.3359 341.417 91.3213L341.385 89.5122ZM352.081 90.1787C352.081 93.3525 352.578 95.68 353.573 97.1611C354.567 98.6423 356.038 99.3828 357.984 99.3828C361.793 99.3828 363.74 96.4523 363.824 90.5913V89.5122C363.824 83.355 361.857 80.2764 357.921 80.2764C354.345 80.2764 352.409 82.9318 352.113 88.2427L352.081 90.1787ZM401.956 82.3394L398.433 82.0854C395.069 82.0854 392.911 83.1434 391.958 85.2593V107H381.263V72.6592H391.292L391.641 77.0708C393.439 73.7065 395.947 72.0244 399.163 72.0244C400.306 72.0244 401.3 72.1514 402.146 72.4053L401.956 82.3394ZM423.742 107.635C418.474 107.635 414.21 106.069 410.952 102.938C407.693 99.7848 406.064 95.6906 406.064 90.6548V89.7661C406.064 86.2537 406.709 83.154 408 80.4668C409.312 77.7796 411.216 75.7061 413.713 74.2461C416.21 72.765 419.172 72.0244 422.6 72.0244C427.424 72.0244 431.233 73.5267 434.026 76.5312C436.819 79.5146 438.215 83.6829 438.215 89.0361V93.1938H416.95C417.331 95.1193 418.167 96.6322 419.458 97.7324C420.748 98.8327 422.42 99.3828 424.472 99.3828C427.858 99.3828 430.503 98.1979 432.407 95.8281L437.295 101.604C435.962 103.445 434.068 104.916 431.613 106.016C429.18 107.095 426.556 107.635 423.742 107.635ZM422.536 80.2764C419.405 80.2764 417.543 82.3499 416.95 86.4971H427.741V85.6719C427.784 83.958 427.35 82.6356 426.44 81.7046C425.53 80.7524 424.229 80.2764 422.536 80.2764Z" fill="#575757"/>
</svg>
